<svg xmlns="http://www.w3.org/2000/svg" viewBox="0 0 800 1200" fill="none" aria-hidden="true">
  <defs>
    <linearGradient id="gFade" x1="0" y1="0" x2="0" y2="1">
      <stop offset="0%" stop-color="#fff" stop-opacity="0"/>
      <stop offset="45%" stop-color="#fff" stop-opacity="0.15"/>
      <stop offset="100%" stop-color="#fff" stop-opacity="0.55"/>
    </linearGradient>
  </defs>
  <rect width="800" height="1200" fill="url(#gFade)"/>
  <ellipse cx="120" cy="980" rx="90" ry="40" fill="#6aab6a" fill-opacity="0.12"/>
  <ellipse cx="680" cy="1010" rx="110" ry="45" fill="#6aab6a" fill-opacity="0.1"/>
  <path d="M0 920 Q200 860 400 900 T800 880 L800 1200 L0 1200 Z" fill="#6aab6a" fill-opacity="0.08"/>
  <circle cx="180" cy="760" r="28" fill="#ffb6c1" fill-opacity="0.22"/>
  <circle cx="220" cy="740" r="18" fill="#ffc0cb" fill-opacity="0.18"/>
  <circle cx="620" cy="820" r="32" fill="#ffb6c1" fill-opacity="0.2"/>
  <circle cx="660" cy="795" r="20" fill="#ffc0cb" fill-opacity="0.16"/>
  <circle cx="400" cy="680" r="24" fill="#ffb6c1" fill-opacity="0.14"/>
  <path d="M160 800 C170 720 190 680 200 640" stroke="#6aab6a" stroke-width="3" stroke-opacity="0.2" stroke-linecap="round"/>
  <path d="M640 850 C650 770 670 710 680 660" stroke="#6aab6a" stroke-width="3" stroke-opacity="0.18" stroke-linecap="round"/>
  <path d="M380 720 C390 660 400 620 410 580" stroke="#6aab6a" stroke-width="2.5" stroke-opacity="0.15" stroke-linecap="round"/>
</svg>
